<svg width="722" height="437" viewBox="0 0 722 437" fill="none" xmlns="http://www.w3.org/2000/svg">
<path d="M679.232 267.489C623.735 287.76 555.372 299.424 499.485 274.718C485.33 268.461 473.016 258.645 463.715 246.912M463.715 246.912C449.548 229.042 442.372 206.727 446.326 185.768C452.513 152.978 474.576 121.921 514.662 117.36C535.557 114.983 554.904 120.892 561.886 139.456C572.554 167.819 544.182 202.495 519.732 218.763C502.828 230.011 483.893 239.436 463.715 246.912ZM32.2074 276.661C88.08 295.19 156.648 304.712 212.04 278.266C226.07 271.568 238.19 261.369 247.261 249.349M247.261 249.349C261.077 231.042 267.819 208.509 263.46 187.68C256.641 155.093 233.982 124.736 193.82 121.43C172.886 119.707 153.659 126.219 147.038 144.997C136.923 173.685 165.958 207.463 190.715 222.961C207.832 233.676 226.944 242.507 247.261 249.349ZM247.261 249.349C318.651 273.391 397.513 276.65 464.436 247.107" stroke="#130F26" stroke-width="15" stroke-linecap="round"/>
<path d="M66.2656 327.57C54.9726 316.599 30.009 290.643 20.4992 274.588" stroke="#130F26" stroke-width="15" stroke-linecap="round"/>
<path d="M20.5 274.586C35.954 268.297 70.904 252.83 87.0714 241.27" stroke="#130F26" stroke-width="15" stroke-linecap="round"/>
</svg>
