<svg width="183" height="192" viewBox="0 0 183 192" fill="none" xmlns="http://www.w3.org/2000/svg">
<path d="M122.407 68.7557C124.405 72.2168 123.801 77.154 120.463 82.624C117.162 88.0346 111.373 93.6023 103.837 97.9529C96.302 102.303 88.5857 104.533 82.2493 104.687C75.8433 104.842 71.2653 102.897 69.2671 99.436C67.2689 95.9749 67.8733 91.0377 71.2108 85.5677C74.5122 80.157 80.3013 74.5894 87.8366 70.2388C95.372 65.8883 103.088 63.6586 109.425 63.5049C115.831 63.3495 120.409 65.2947 122.407 68.7557Z" fill="#3BB3BD" stroke="black" stroke-width="3.2295"/>
<path d="M153.234 122.15C155.232 125.611 154.628 130.548 151.29 136.018C147.989 141.429 142.2 146.996 134.665 151.347C127.129 155.697 119.413 157.927 113.076 158.081C106.671 158.236 102.093 156.291 100.094 152.83C98.0961 149.369 98.7005 144.432 102.038 138.962C105.339 133.551 111.128 127.983 118.664 123.633C126.199 119.282 133.915 117.053 140.252 116.899C146.658 116.744 151.236 118.689 153.234 122.15Z" fill="#7FBC8C" stroke="black" stroke-width="3.2295"/>
<path d="M69.2674 99.436L99.8008 152.322" stroke="black" stroke-width="3.2295"/>
<path d="M122.407 68.7558L152.94 121.641" stroke="black" stroke-width="3.2295"/>
<path d="M103.984 98.2072L134.664 151.347" stroke="black" stroke-width="3.38713"/>
</svg>
