<svg width="178" height="446" viewBox="0 0 178 446" fill="none" xmlns="http://www.w3.org/2000/svg">
<path d="M34.3731 358.166C36.6609 358.928 48.7623 352.643 65.7473 341.882C123.761 304.982 124.42 309.686 124.264 303.245C124.096 296.35 121.58 297.41 83.0831 319.404C41.8112 343.009 26.3151 355.276 34.3731 358.166Z" fill="black"/>
<path d="M135.306 361.795C136.514 362.946 137.498 362.286 141.932 358.003C148.493 351.581 151.052 341.08 146.062 341.201C141.982 341.391 132.612 359.228 135.306 361.795Z" fill="black"/>
<path d="M164.786 375.877C151.333 419.956 148.073 435.193 151.283 440.289C153.836 444.494 155.588 441.909 158.293 429.953C160.496 419.733 165.671 401.09 171.308 382.799C175.936 367.8 176.397 364.34 174.753 360.204C172.346 354.544 170.25 357.953 164.786 375.877Z" fill="black"/>
<path d="M10.769 287.033C12.9661 287.796 33.5363 282.667 46.2283 278.274C49.2884 277.201 57.4045 275.007 64.1731 273.39C77.3517 270.347 78.0673 269.876 77.9417 264.705C77.8227 259.806 78.0032 259.802 56.0114 266.236C17.7056 277.424 2.8946 284.228 10.769 287.033Z" fill="black"/>
<path d="M108.536 391.948C114.717 384.808 120.198 382.496 120.035 375.783C119.772 364.988 119.036 364.552 106.376 377.749C82.9155 402.192 66.7788 425.458 69.9822 430.282C73.179 434.833 83.9097 416.963 108.536 391.948Z" fill="black"/>
<path d="M80.7778 63.8502C74.8044 57.0967 68.7068 52.7063 65.441 52.7856C60.9052 52.8958 59.6801 58.5533 63.3349 63.2754C87.4272 94.7323 122.324 126.29 126.82 120.825C131.228 115.453 127.651 110.185 104.131 87.3371C93.8101 77.24 83.2977 66.6936 80.7778 63.8502Z" fill="black"/>
<path d="M11.0084 192.261C20.2392 194.85 41.9004 197.229 87.8067 207.46C96.9335 209.508 97.114 209.503 99.765 206.534C101.885 204.123 102.592 199.567 101.086 197.334C99.86 195.458 35.9898 181.851 14.0388 178.753C5.48048 177.69 0.408041 189.341 11.0084 192.261Z" fill="black"/>
<path d="M117.432 22.0228C125.813 49.4136 147.263 99.1795 151.958 101.879C155.181 103.798 158.07 95.6493 156.032 90.2525L148.284 70.1988C136.369 39.3538 119.11 1.46781 117.024 1.5185C112.762 1.71279 112.898 7.24654 117.432 22.0228Z" fill="black"/>
<path d="M26.6804 123.712C29.3487 125.19 36.6278 129.642 56.2899 143.143C65.1531 149.282 83.5522 159.365 85.7294 159.312C90.0838 159.206 74.725 147.234 44.0956 126.919C37.4538 122.542 31.2655 118.154 30.3319 117.087C25.7677 112.297 21.7112 120.928 26.6804 123.712Z" fill="black"/>
</svg>
